<?xml version="1.0" encoding="utf-8"?>
<!-- Generator: Adobe Illustrator 23.0.1, SVG Export Plug-In . SVG Version: 6.00 Build 0)  -->
<svg version="1.1" id="Capa_1" xmlns="http://www.w3.org/2000/svg" xmlns:xlink="http://www.w3.org/1999/xlink" x="0px" y="0px"
	 viewBox="0 0 190.79 153.3" style="enable-background:new 0 0 190.79 153.3;" xml:space="preserve">
<style type="text/css">
	.st0{fill:#575757;}
	.st1{fill:#1AB7D1;}
</style>
<g>
	<g>
		<g>
			<path class="st0" d="M133.95,4.49c2.97-0.35,6.19-0.53,9.66-0.53c2.55,0,5.1,0.3,7.64,0.9c2.55,0.6,4.81,1.57,6.8,2.92
				c1.98,1.34,3.59,3.09,4.83,5.25c1.24,2.16,1.86,4.79,1.86,7.9c0,4.67-1.17,8.7-3.5,12.09c-2.33,3.39-5.73,5.9-10.19,7.53
				c3.25,1.27,5.66,3.23,7.22,5.89c1.56,2.65,2.33,5.53,2.33,8.64c0,4.03-0.78,7.49-2.34,10.39c-1.56,2.9-3.66,5.29-6.32,7.16
				c-2.65,1.87-5.7,3.27-9.13,4.19c-3.43,0.92-7.02,1.38-10.77,1.38h-19.01 M123.05,69.61h9.13c2.55,0,4.9-0.28,7.06-0.85
				c2.16-0.56,4.05-1.45,5.68-2.65c1.63-1.2,2.9-2.72,3.82-4.56c0.92-1.84,1.38-4.06,1.38-6.68c0-6.79-4.14-10.18-12.42-10.18h-9.66
				L123.05,69.61z M129.62,36.41h8.92c4.6,0,8.38-1.18,11.36-3.55c2.97-2.37,4.46-5.92,4.46-10.66c0-3.32-1.08-5.73-3.24-7.21
				c-2.16-1.48-5.04-2.23-8.65-2.23c-1.7,0-3.22,0.07-4.57,0.21c-1.35,0.14-2.55,0.28-3.61,0.42L129.62,36.41z"/>
		</g>
		<g>
			<path class="st0" d="M141.8,3.96h-31.93c0,0,1.94,3.27,0,15.04L96.8,71.96c0,0-0.65,2.83-3.39,6.24h31.93"/>
		</g>
	</g>
	<g>
		<path class="st1" d="M68.12,55.29l-4.55-34.85L26.49,72.37c79.36-32.53,161.07-32.56,161.07-32.56l-20.02,11.61
			C71.42,50.24,23.06,78.46,23.06,78.46H4.43c8.39-3.55,51.25-65.12,51.25-65.12c3.71-4.84,0-6.13,0-6.13V4.96h33.06l4.68,43.11
			C93.41,48.06,79.97,50.65,68.12,55.29z"/>
		<path class="st1" d="M68.26,55.75c-0.13,0.04-0.28,0.02-0.4-0.06c-0.12-0.08-0.2-0.2-0.21-0.34l-4.39-33.63L27.85,71.29
			c40.54-16.39,81.5-24.21,108.87-27.88c30.03-4.03,50.63-4.09,50.84-4.09c0.22,0,0.41,0.15,0.47,0.36
			c0.06,0.21-0.04,0.43-0.22,0.54l-20.02,11.61c-0.08,0.04-0.14,0.06-0.25,0.07c-1.94-0.02-3.91-0.04-5.84-0.04
			c-47.56,0-82.65,7.35-103.72,13.51C35.15,72.05,23.42,78.81,23.3,78.88c-0.07,0.04-0.16,0.07-0.24,0.07H4.43
			c-0.23,0-0.43-0.16-0.47-0.39c-0.05-0.23,0.07-0.45,0.29-0.54c8.16-3.45,50.61-64.34,51.04-64.95c1.27-1.66,1.78-3.07,1.48-4.08
			c-0.29-0.96-1.23-1.31-1.24-1.31c-0.19-0.07-0.32-0.25-0.32-0.46V4.96c0-0.27,0.22-0.48,0.48-0.48h33.06
			c0.25,0,0.45,0.19,0.48,0.43l4.68,43.11c0.03,0.23-0.12,0.45-0.35,0.52C93.55,48.53,80.9,51.25,68.26,55.75z M6.11,77.98h16.82
			c1.28-0.72,13.01-7.17,34.72-13.52c21.13-6.19,56.34-13.56,104.04-13.56c1.89,0,3.81,0.01,5.72,0.03l18.31-10.62
			c-5.68,0.11-24.05,0.72-48.89,4.05c-27.66,3.71-69.22,11.66-110.16,28.44c-0.2,0.08-0.43,0.02-0.56-0.15
			c-0.13-0.17-0.14-0.41-0.01-0.58l37.09-51.93c0.12-0.16,0.32-0.24,0.51-0.19s0.34,0.21,0.36,0.41l4.47,34.29l24.36-6.96L88.3,5.44
			H56.16V6.9c0.44,0.24,1.21,0.78,1.52,1.8c0.4,1.34-0.14,3-1.62,4.93C54.41,16.01,17.04,69.6,6.11,77.98z"/>
	</g>
</g>
<g>
	<path class="st0" d="M14.53,119.06c1.15-0.29,2.35-0.51,3.61-0.67c1.26-0.16,2.72-0.24,4.39-0.24c1.12,0,2.23,0.13,3.33,0.39
		s2.1,0.67,2.99,1.23c0.89,0.56,1.61,1.28,2.17,2.17c0.56,0.89,0.84,1.96,0.84,3.22c0,1.92-0.47,3.52-1.4,4.79s-2.23,2.32-3.89,3.12
		c1.12,0.52,1.96,1.3,2.54,2.37s0.86,2.25,0.86,3.57c0,1.52-0.3,2.87-0.9,4.04c-0.6,1.18-1.42,2.16-2.45,2.95
		c-1.03,0.79-2.24,1.39-3.61,1.81c-1.38,0.42-2.85,0.62-4.43,0.62H10.4c-0.92,0-1.38-0.36-1.38-1.08c0-0.29,0.05-0.74,0.15-1.35
		c0.1-0.62,0.26-1.51,0.49-2.69L14.53,119.06z M16.64,142.96h2.41c1.32,0,2.35-0.42,3.1-1.27c0.75-0.84,1.12-1.91,1.12-3.2
		c0-1.89-1.06-2.84-3.18-2.84h-2.02L16.64,142.96z M19.09,130.58h2.15c1.29,0,2.26-0.42,2.9-1.25c0.64-0.83,0.97-1.88,0.97-3.14
		c0-0.83-0.27-1.47-0.82-1.91c-0.54-0.44-1.28-0.67-2.19-0.67c-0.4,0-0.75,0.02-1.05,0.06c-0.3,0.04-0.49,0.08-0.58,0.11
		L19.09,130.58z"/>
	<path class="st0" d="M44.84,145.8c-0.86,0.97-1.73,1.73-2.62,2.28c-0.89,0.54-2.04,0.82-3.44,0.82c-2.01,0-3.49-0.75-4.45-2.24
		c-0.96-1.49-1.44-3.51-1.44-6.06c0-1.98,0.26-3.87,0.8-5.68c0.53-1.81,1.33-3.4,2.39-4.77s2.37-2.48,3.91-3.31
		c1.55-0.83,3.34-1.25,5.38-1.25c1.29,0,2.45,0.12,3.48,0.37c1.03,0.24,1.83,0.49,2.41,0.75c0.86,0.4,1.46,0.76,1.81,1.08
		c0.34,0.32,0.52,0.85,0.52,1.59c0,0.14-0.04,0.44-0.11,0.88s-0.15,0.84-0.24,1.18l-1.81,7.91c-0.17,0.72-0.32,1.5-0.43,2.34
		c-0.12,0.85-0.22,1.68-0.3,2.52c-0.09,0.83-0.15,1.61-0.19,2.34c-0.04,0.73-0.06,1.35-0.06,1.87h-3.61c-0.54,0-0.92-0.11-1.12-0.32
		c-0.2-0.21-0.36-0.54-0.47-0.97L44.84,145.8z M45.36,130.49c-1.03,0-1.9,0.34-2.6,1.01c-0.7,0.67-1.27,1.5-1.7,2.49
		s-0.75,2.05-0.95,3.18c-0.2,1.13-0.3,2.16-0.3,3.07c0,0.89,0.13,1.58,0.39,2.06c0.26,0.49,0.66,0.73,1.2,0.73
		c0.72,0,1.25-0.13,1.61-0.39s0.69-0.56,1.01-0.9l2.41-11.09c-0.14-0.06-0.3-0.1-0.47-0.13C45.79,130.51,45.59,130.49,45.36,130.49z
		"/>
	<path class="st0" d="M62.82,140.81c-0.06,0.26-0.1,0.51-0.13,0.75c-0.03,0.24-0.04,0.47-0.04,0.67c0,0.4,0.11,0.67,0.34,0.82
		s0.49,0.21,0.77,0.21h0.69c0.46,0,0.78,0.11,0.97,0.34s0.31,0.64,0.37,1.25l0.26,3.1c-0.09,0.06-0.29,0.13-0.6,0.21
		s-0.71,0.19-1.18,0.3c-0.47,0.11-1.01,0.21-1.61,0.28c-0.6,0.07-1.23,0.11-1.89,0.11c-0.69,0-1.36-0.08-2.02-0.24
		c-0.66-0.16-1.23-0.42-1.72-0.8c-0.49-0.37-0.88-0.87-1.18-1.48c-0.3-0.62-0.45-1.37-0.45-2.26c0-0.57,0.04-1.21,0.13-1.91
		s0.2-1.37,0.34-2l4.6-22.62h5.2c1.03,0,1.55,0.37,1.55,1.12c0,0.23-0.02,0.47-0.06,0.71c-0.04,0.24-0.09,0.54-0.15,0.88
		L62.82,140.81z"/>
	<path class="st0" d="M87.37,139.35c-0.14,0.75-0.27,1.54-0.39,2.39c-0.12,0.85-0.21,1.68-0.28,2.49c-0.07,0.82-0.14,1.59-0.19,2.32
		c-0.06,0.73-0.09,1.35-0.09,1.87h-3.57c-0.54,0-0.92-0.1-1.12-0.3c-0.2-0.2-0.37-0.53-0.52-0.99l-0.39-1.33
		c-0.86,1.03-1.77,1.81-2.73,2.32c-0.96,0.52-2.03,0.77-3.2,0.77c-2.12,0-3.69-0.75-4.71-2.24c-1.02-1.49-1.53-3.51-1.53-6.06
		c0-2.01,0.29-3.92,0.86-5.74c0.57-1.82,1.38-3.42,2.41-4.79s2.26-2.46,3.68-3.27c1.42-0.8,2.97-1.2,4.67-1.2
		c0.54,0,1.04,0.03,1.48,0.09c0.44,0.06,0.91,0.2,1.4,0.43l1.76-8.56h4.77c0.57,0,1,0.08,1.29,0.24c0.29,0.16,0.43,0.51,0.43,1.05
		c0,0.23-0.03,0.5-0.09,0.8c-0.06,0.3-0.12,0.58-0.17,0.84L87.37,139.35z M77.57,143.05c0.49,0,0.94-0.13,1.35-0.39
		s0.78-0.59,1.1-0.99l2.19-10.71c-0.14-0.06-0.33-0.1-0.56-0.13c-0.23-0.03-0.5-0.04-0.82-0.04c-0.89,0-1.65,0.32-2.28,0.95
		c-0.63,0.63-1.15,1.43-1.57,2.39c-0.42,0.96-0.72,2-0.9,3.12c-0.19,1.12-0.28,2.15-0.28,3.1c0,0.83,0.15,1.49,0.45,1.98
		S76.99,143.05,77.57,143.05z"/>
	<path class="st0" d="M108.23,147.05c-1.03,0.54-2.25,1-3.65,1.38c-1.41,0.37-2.91,0.56-4.52,0.56c-1.26,0-2.41-0.21-3.44-0.62
		c-1.03-0.42-1.91-1.02-2.64-1.81c-0.73-0.79-1.3-1.74-1.7-2.86c-0.4-1.12-0.6-2.38-0.6-3.78c0-1.55,0.22-3.17,0.67-4.86
		c0.44-1.69,1.15-3.24,2.13-4.64c0.97-1.4,2.21-2.56,3.72-3.46c1.5-0.9,3.33-1.35,5.48-1.35c2.35,0,4.16,0.57,5.44,1.72
		c1.28,1.15,1.91,2.75,1.91,4.82c0,0.95-0.2,1.9-0.6,2.86c-0.4,0.96-1.05,1.83-1.96,2.62c-0.9,0.79-2.09,1.43-3.57,1.91
		s-3.3,0.73-5.48,0.73h-0.95c0,1.23,0.31,2.08,0.92,2.54c0.62,0.46,1.38,0.69,2.3,0.69c0.57,0,1.15-0.04,1.74-0.11
		c0.59-0.07,1.08-0.17,1.48-0.28c0.26-0.06,0.5-0.12,0.73-0.19c0.23-0.07,0.43-0.11,0.6-0.11c0.4,0,0.68,0.14,0.84,0.41
		c0.16,0.27,0.31,0.67,0.45,1.18L108.23,147.05z M99.54,136.08c1.69,0,3-0.32,3.91-0.97c0.92-0.65,1.38-1.47,1.38-2.47
		c0-0.66-0.19-1.17-0.56-1.53c-0.37-0.36-0.85-0.54-1.42-0.54c-0.95,0-1.82,0.49-2.62,1.46c-0.8,0.98-1.32,2.32-1.55,4.04H99.54z"/>
	<path class="st0" d="M128.05,132.6c-0.34-0.06-0.67-0.1-0.97-0.13c-0.3-0.03-0.61-0.04-0.92-0.04c-0.31,0-0.68,0.03-1.1,0.09
		s-0.83,0.14-1.25,0.26c-0.42,0.12-0.82,0.27-1.23,0.45c-0.4,0.19-0.74,0.41-1.03,0.67l-2.92,14.53h-5.25
		c-0.66,0-1.08-0.12-1.25-0.37c-0.17-0.24-0.26-0.51-0.26-0.79c0-0.11,0.02-0.3,0.06-0.56s0.09-0.52,0.13-0.79s0.09-0.53,0.13-0.77
		c0.04-0.24,0.08-0.44,0.11-0.58l3.7-18.45h4.13c0.46,0,0.78,0.04,0.97,0.13c0.19,0.09,0.32,0.2,0.41,0.34
		c0.06,0.12,0.1,0.24,0.13,0.39s0.04,0.29,0.04,0.43l0.04,1.89c0.26-0.43,0.58-0.84,0.97-1.23c0.39-0.39,0.82-0.74,1.31-1.05
		s1-0.57,1.55-0.75c0.54-0.19,1.1-0.28,1.68-0.28c1.32,0,1.98,0.46,1.98,1.38c0,0.34-0.04,0.71-0.11,1.1
		c-0.07,0.39-0.18,0.82-0.32,1.31L128.05,132.6z"/>
	<path class="st0" d="M141.08,145.8c-0.86,0.97-1.73,1.73-2.62,2.28c-0.89,0.54-2.04,0.82-3.44,0.82c-2.01,0-3.49-0.75-4.45-2.24
		c-0.96-1.49-1.44-3.51-1.44-6.06c0-1.98,0.26-3.87,0.8-5.68c0.53-1.81,1.33-3.4,2.39-4.77s2.37-2.48,3.91-3.31
		c1.55-0.83,3.34-1.25,5.38-1.25c1.29,0,2.45,0.12,3.48,0.37c1.03,0.24,1.83,0.49,2.41,0.75c0.86,0.4,1.46,0.76,1.81,1.08
		c0.34,0.32,0.52,0.85,0.52,1.59c0,0.14-0.04,0.44-0.11,0.88s-0.15,0.84-0.24,1.18l-1.81,7.91c-0.17,0.72-0.32,1.5-0.43,2.34
		c-0.12,0.85-0.22,1.68-0.3,2.52c-0.09,0.83-0.15,1.61-0.19,2.34c-0.04,0.73-0.06,1.35-0.06,1.87h-3.61c-0.54,0-0.92-0.11-1.12-0.32
		c-0.2-0.21-0.36-0.54-0.47-0.97L141.08,145.8z M141.59,130.49c-1.03,0-1.9,0.34-2.6,1.01c-0.7,0.67-1.27,1.5-1.7,2.49
		s-0.75,2.05-0.95,3.18c-0.2,1.13-0.3,2.16-0.3,3.07c0,0.89,0.13,1.58,0.39,2.06c0.26,0.49,0.66,0.73,1.2,0.73
		c0.72,0,1.25-0.13,1.61-0.39s0.69-0.56,1.01-0.9l2.41-11.09c-0.14-0.06-0.3-0.1-0.47-0.13
		C142.02,130.51,141.82,130.49,141.59,130.49z"/>
	<path class="st0" d="M158.88,148.98c-0.8,0-1.75-0.09-2.84-0.26c-1.09-0.17-2.12-0.46-3.1-0.86c-0.75-0.32-1.3-0.61-1.68-0.88
		c-0.37-0.27-0.56-0.67-0.56-1.18c0-0.34,0.06-0.72,0.19-1.14c0.13-0.42,0.26-0.82,0.41-1.23l0.6-1.55c0.2,0.11,0.52,0.26,0.97,0.45
		c0.44,0.19,0.96,0.37,1.55,0.54c0.59,0.17,1.22,0.32,1.89,0.45s1.34,0.19,2,0.19c1.95,0,2.92-0.59,2.92-1.76
		c0-0.4-0.12-0.76-0.37-1.08c-0.24-0.32-0.78-0.63-1.61-0.95c-0.83-0.34-1.62-0.69-2.37-1.05c-0.75-0.36-1.41-0.79-1.98-1.31
		c-0.57-0.52-1.03-1.12-1.35-1.81c-0.33-0.69-0.49-1.52-0.49-2.49c0-1.23,0.24-2.31,0.71-3.25c0.47-0.93,1.13-1.71,1.98-2.34
		c0.84-0.63,1.83-1.11,2.97-1.44c1.13-0.33,2.34-0.5,3.63-0.5c0.69,0,1.33,0.04,1.93,0.13c0.6,0.09,1.15,0.19,1.63,0.32
		s0.9,0.25,1.23,0.37c0.33,0.12,0.58,0.21,0.75,0.3c0.75,0.34,1.25,0.65,1.53,0.92s0.41,0.57,0.41,0.88c0,0.2-0.05,0.45-0.15,0.75
		s-0.22,0.67-0.37,1.1l-0.64,1.81c-0.77-0.34-1.73-0.65-2.86-0.92s-2.23-0.41-3.29-0.41c-0.57,0-1.12,0.13-1.66,0.39
		c-0.53,0.26-0.8,0.7-0.8,1.33c0,0.57,0.24,0.98,0.71,1.23c0.47,0.24,1.08,0.52,1.83,0.84c0.8,0.34,1.55,0.7,2.24,1.08
		c0.69,0.37,1.28,0.82,1.78,1.33c0.5,0.52,0.9,1.11,1.18,1.78c0.29,0.67,0.43,1.47,0.43,2.39c0,1.29-0.24,2.43-0.73,3.42
		c-0.49,0.99-1.16,1.81-2.02,2.45c-0.86,0.65-1.86,1.13-2.99,1.46C161.38,148.82,160.17,148.98,158.88,148.98z"/>
</g>
<g>
	<path class="st1" d="M8.83,105.71c-0.35,0.87-0.68,1.73-1,2.59c-0.32,0.86-0.6,1.68-0.84,2.46H5.14c-0.21,0-0.36-0.04-0.44-0.13
		c-0.09-0.09-0.13-0.2-0.13-0.34c0-0.17,0.03-0.34,0.08-0.51c0.05-0.16,0.12-0.37,0.21-0.61c0.66-1.85,1.63-4.18,2.93-6.97
		c1.29-2.79,2.99-5.95,5.08-9.46h2.31c0.48,0,0.78,0.27,0.88,0.81c0.19,1.18,0.36,2.67,0.52,4.46s0.23,3.74,0.23,5.84
		c0,1.28-0.02,2.5-0.05,3.64c-0.04,1.14-0.09,2.24-0.16,3.28h-1.95c-0.38,0-0.57-0.2-0.57-0.6c0-0.1,0.01-0.32,0.03-0.65
		c0.02-0.33,0.04-0.71,0.06-1.14c0.03-0.43,0.05-0.88,0.08-1.35c0.03-0.47,0.05-0.9,0.07-1.3H8.83z M13.98,94.87
		c-0.45,0.82-0.86,1.59-1.23,2.33c-0.37,0.74-0.73,1.46-1.08,2.16s-0.68,1.4-1,2.11c-0.32,0.7-0.65,1.42-0.97,2.15h4.65
		c0.02-0.23,0.03-0.45,0.04-0.68s0.01-0.43,0.01-0.62c0-1.21-0.02-2.43-0.06-3.64C14.29,97.45,14.17,96.19,13.98,94.87z"/>
	<path class="st1" d="M29.99,105.35c-0.1,0.5-0.2,1.04-0.27,1.61c-0.08,0.57-0.15,1.12-0.21,1.64c-0.06,0.52-0.11,0.98-0.14,1.38
		s-0.05,0.66-0.05,0.78h-1.36c-0.24,0-0.41-0.04-0.51-0.13c-0.1-0.09-0.16-0.24-0.2-0.47l-0.13-0.96c-0.48,0.5-1.08,0.94-1.79,1.3
		c-0.71,0.36-1.5,0.55-2.38,0.55c-1.05,0-1.9-0.29-2.53-0.87c-0.63-0.58-0.95-1.44-0.95-2.59c0-0.22,0.03-0.55,0.08-0.99
		c0.05-0.43,0.14-0.95,0.26-1.53l1.53-7.57h1.79c0.26,0,0.43,0.05,0.52,0.14c0.09,0.09,0.13,0.21,0.13,0.35
		c0,0.09-0.02,0.23-0.06,0.44c-0.04,0.21-0.08,0.42-0.12,0.65l-1.25,6.24c-0.1,0.5-0.18,0.9-0.22,1.2
		c-0.04,0.29-0.07,0.57-0.07,0.83c0,1.04,0.58,1.56,1.73,1.56c0.35,0,0.67-0.05,0.98-0.14s0.6-0.22,0.88-0.38
		c0.28-0.16,0.52-0.32,0.74-0.49s0.4-0.34,0.56-0.49l2-9.91h1.8c0.26,0,0.43,0.04,0.52,0.13c0.09,0.09,0.13,0.2,0.13,0.34
		c0,0.1-0.02,0.27-0.06,0.49c-0.04,0.23-0.08,0.43-0.12,0.62L29.99,105.35z"/>
	<path class="st1" d="M35.3,99.47h-1.09c-0.4,0-0.6-0.15-0.6-0.44c0-0.09,0.01-0.19,0.04-0.3c0.03-0.11,0.06-0.26,0.09-0.46
		l0.16-0.78h1.77l0.86-3.41h1.66c0.42,0,0.62,0.16,0.62,0.47c0,0.17-0.04,0.45-0.13,0.83l-0.44,2.11h2.66c0.4,0,0.6,0.15,0.6,0.44
		c0,0.09-0.01,0.19-0.04,0.3c-0.03,0.11-0.06,0.26-0.09,0.46l-0.16,0.78h-3.33l-1.53,7.54c-0.04,0.21-0.06,0.39-0.08,0.55
		c-0.02,0.16-0.03,0.29-0.03,0.42c0,0.35,0.1,0.58,0.3,0.71c0.2,0.13,0.45,0.2,0.74,0.2c0.31,0,0.63-0.04,0.96-0.13
		c0.33-0.09,0.55-0.13,0.65-0.13c0.14,0,0.24,0.05,0.31,0.14s0.13,0.24,0.18,0.43l0.21,0.94c-0.45,0.24-0.95,0.43-1.51,0.57
		c-0.56,0.14-1.12,0.21-1.69,0.21c-0.87,0-1.54-0.22-2.03-0.65c-0.49-0.43-0.73-1.07-0.73-1.9c0-0.36,0.03-0.74,0.09-1.12
		c0.06-0.38,0.13-0.76,0.22-1.14L35.3,99.47z"/>
	<path class="st1" d="M41.7,106.08c0-1.16,0.16-2.27,0.47-3.34c0.31-1.07,0.76-2.01,1.35-2.82c0.59-0.81,1.31-1.47,2.17-1.96
		c0.86-0.49,1.83-0.74,2.93-0.74c1.46,0,2.61,0.42,3.46,1.26c0.85,0.84,1.27,2.08,1.27,3.71c0,1.14-0.15,2.25-0.44,3.33
		c-0.29,1.08-0.73,2.02-1.31,2.83c-0.58,0.82-1.3,1.47-2.16,1.96c-0.86,0.49-1.84,0.74-2.95,0.74c-1.47,0-2.64-0.41-3.5-1.23
		C42.13,108.99,41.7,107.74,41.7,106.08z M44.24,106.03c0,0.83,0.18,1.52,0.55,2.05c0.36,0.54,0.94,0.81,1.74,0.81
		c0.69,0,1.31-0.19,1.85-0.57s0.98-0.89,1.34-1.52c0.36-0.63,0.62-1.35,0.81-2.14c0.18-0.8,0.27-1.61,0.27-2.44
		c0-0.85-0.18-1.54-0.53-2.07c-0.36-0.53-0.92-0.79-1.7-0.79c-0.71,0-1.33,0.19-1.87,0.58c-0.54,0.39-0.99,0.9-1.35,1.52
		s-0.64,1.33-0.82,2.13C44.34,104.38,44.24,105.19,44.24,106.03z"/>
	<path class="st1" d="M57.42,99.47h-1.09c-0.4,0-0.6-0.15-0.6-0.44c0-0.09,0.01-0.19,0.04-0.3c0.03-0.11,0.06-0.26,0.09-0.46
		l0.16-0.78h1.77l0.86-3.41h1.66c0.42,0,0.62,0.16,0.62,0.47c0,0.17-0.04,0.45-0.13,0.83l-0.44,2.11h2.66c0.4,0,0.6,0.15,0.6,0.44
		c0,0.09-0.01,0.19-0.04,0.3c-0.03,0.11-0.06,0.26-0.09,0.46l-0.16,0.78H60l-1.53,7.54c-0.04,0.21-0.06,0.39-0.08,0.55
		c-0.02,0.16-0.03,0.29-0.03,0.42c0,0.35,0.1,0.58,0.3,0.71c0.2,0.13,0.45,0.2,0.74,0.2c0.31,0,0.63-0.04,0.96-0.13
		c0.33-0.09,0.55-0.13,0.65-0.13c0.14,0,0.24,0.05,0.31,0.14s0.13,0.24,0.18,0.43l0.21,0.94c-0.45,0.24-0.95,0.43-1.51,0.57
		c-0.56,0.14-1.12,0.21-1.69,0.21c-0.87,0-1.54-0.22-2.03-0.65c-0.49-0.43-0.73-1.07-0.73-1.9c0-0.36,0.03-0.74,0.09-1.12
		c0.06-0.38,0.13-0.76,0.22-1.14L57.42,99.47z"/>
	<path class="st1" d="M72.79,99.86c-0.16-0.03-0.31-0.05-0.46-0.05s-0.27,0-0.38,0c-0.62,0-1.27,0.13-1.95,0.4
		c-0.68,0.27-1.27,0.66-1.77,1.16l-1.87,9.39h-1.82c-0.26,0-0.43-0.05-0.51-0.14c-0.08-0.09-0.12-0.21-0.12-0.35
		c0-0.09,0.02-0.24,0.06-0.47c0.04-0.22,0.08-0.43,0.12-0.62l2.34-11.67h1.56c0.16,0,0.29,0.03,0.39,0.09
		c0.1,0.06,0.16,0.19,0.16,0.38c0,0.09,0,0.19-0.01,0.3c-0.01,0.11-0.02,0.23-0.04,0.35l-0.05,0.65c0.47-0.5,1.04-0.93,1.73-1.29
		c0.68-0.36,1.42-0.53,2.2-0.53c0.54,0,0.81,0.19,0.81,0.57c0,0.1-0.02,0.23-0.05,0.39c-0.03,0.16-0.07,0.31-0.1,0.47L72.79,99.86z"
		/>
	<path class="st1" d="M80.66,109.25c-0.62,0.66-1.25,1.13-1.87,1.4c-0.62,0.28-1.28,0.42-1.97,0.42c-1.14,0-2.04-0.41-2.69-1.22
		c-0.65-0.81-0.97-1.97-0.97-3.46c0-1.2,0.16-2.35,0.48-3.46s0.79-2.09,1.42-2.94c0.62-0.85,1.38-1.52,2.29-2.03
		c0.9-0.5,1.93-0.75,3.09-0.75c0.73,0,1.42,0.08,2.08,0.23s1.16,0.31,1.51,0.47c0.35,0.16,0.59,0.29,0.73,0.42
		c0.14,0.12,0.21,0.32,0.21,0.6c0,0.12-0.04,0.37-0.12,0.75c-0.08,0.38-0.16,0.74-0.25,1.07l-1.09,4.6
		c-0.12,0.5-0.23,1.05-0.31,1.64c-0.09,0.59-0.16,1.15-0.21,1.69s-0.09,1-0.12,1.39c-0.03,0.39-0.04,0.62-0.04,0.69h-1.38
		c-0.24,0-0.41-0.05-0.5-0.14c-0.09-0.09-0.15-0.25-0.18-0.46L80.66,109.25z M80.45,99.21c-0.76,0-1.43,0.2-2.01,0.61
		s-1.07,0.94-1.47,1.6c-0.4,0.66-0.7,1.4-0.91,2.24c-0.21,0.83-0.31,1.68-0.31,2.55c0,0.33,0.02,0.65,0.06,0.96
		c0.04,0.31,0.13,0.59,0.27,0.83c0.14,0.24,0.33,0.44,0.57,0.58c0.24,0.15,0.56,0.22,0.96,0.22c0.6,0,1.15-0.17,1.65-0.49
		c0.49-0.33,0.91-0.74,1.26-1.22l1.77-7.57c-0.14-0.05-0.38-0.12-0.73-0.2C81.22,99.25,80.85,99.21,80.45,99.21z"/>
	<path class="st1" d="M88.63,97.5h1.48c0.35,0,0.53,0.1,0.55,0.31c0.02,0.09,0.03,0.17,0.03,0.23c0,0.07,0,0.16,0,0.26v0.55
		c0.42-0.4,0.98-0.77,1.7-1.12c0.72-0.35,1.51-0.52,2.38-0.52c1,0,1.82,0.27,2.46,0.82s0.95,1.39,0.95,2.54
		c0,0.31-0.03,0.69-0.09,1.13c-0.06,0.44-0.14,0.94-0.25,1.5l-1.53,7.57h-1.77c-0.28,0-0.46-0.05-0.55-0.14
		c-0.09-0.09-0.13-0.21-0.13-0.35c0-0.09,0.02-0.23,0.07-0.44c0.04-0.21,0.08-0.42,0.12-0.65l1.25-6.21
		c0.1-0.52,0.18-0.93,0.22-1.22c0.04-0.29,0.06-0.59,0.06-0.88c0-1-0.6-1.51-1.79-1.51c-0.36,0-0.71,0.05-1.03,0.14
		c-0.32,0.1-0.62,0.22-0.9,0.36s-0.52,0.31-0.74,0.48c-0.22,0.17-0.4,0.34-0.56,0.49l-2,9.93h-1.82c-0.26,0-0.43-0.05-0.51-0.14
		c-0.08-0.09-0.12-0.21-0.12-0.35c0-0.09,0.02-0.24,0.07-0.47c0.04-0.22,0.08-0.43,0.12-0.62L88.63,97.5z"/>
	<path class="st1" d="M103.45,111.04c-0.71,0-1.38-0.08-2.02-0.23c-0.63-0.16-1.12-0.31-1.47-0.47c-0.26-0.12-0.45-0.24-0.57-0.35
		c-0.12-0.11-0.18-0.26-0.18-0.46c0-0.12,0.02-0.26,0.07-0.42c0.04-0.16,0.09-0.3,0.14-0.44l0.21-0.57
		c0.09,0.05,0.26,0.12,0.51,0.21s0.55,0.17,0.88,0.26s0.71,0.17,1.11,0.23c0.4,0.07,0.8,0.1,1.2,0.1c0.38,0,0.76-0.03,1.13-0.1
		c0.37-0.07,0.71-0.18,1-0.34c0.29-0.16,0.53-0.36,0.7-0.62c0.17-0.26,0.26-0.59,0.26-0.99c0-0.42-0.15-0.77-0.46-1.05
		c-0.3-0.29-0.87-0.58-1.7-0.87c-0.47-0.17-0.91-0.36-1.34-0.55s-0.8-0.42-1.13-0.7c-0.33-0.28-0.59-0.6-0.78-0.98
		c-0.19-0.37-0.29-0.82-0.29-1.34c0-0.68,0.14-1.27,0.42-1.79c0.28-0.52,0.66-0.96,1.14-1.31c0.48-0.36,1.05-0.62,1.7-0.79
		c0.65-0.17,1.35-0.26,2.09-0.26c0.83,0,1.52,0.09,2.08,0.26c0.55,0.17,0.93,0.3,1.12,0.39c0.24,0.12,0.42,0.24,0.52,0.36
		c0.1,0.12,0.16,0.25,0.16,0.39c0,0.19-0.06,0.45-0.18,0.78l-0.23,0.6c-0.26-0.12-0.71-0.27-1.34-0.44
		c-0.63-0.17-1.34-0.26-2.12-0.26c-0.31,0-0.63,0.03-0.96,0.08c-0.33,0.05-0.63,0.15-0.9,0.29s-0.49,0.33-0.68,0.57
		c-0.18,0.24-0.27,0.56-0.27,0.96c0,0.23,0.05,0.42,0.14,0.58c0.09,0.17,0.24,0.31,0.44,0.44c0.2,0.13,0.45,0.26,0.75,0.39
		c0.3,0.13,0.66,0.27,1.08,0.43c0.47,0.19,0.9,0.39,1.3,0.6c0.4,0.21,0.74,0.45,1.04,0.73s0.52,0.6,0.69,0.97
		c0.17,0.37,0.25,0.82,0.25,1.34c0,0.73-0.15,1.36-0.44,1.91c-0.29,0.55-0.69,1-1.18,1.37s-1.08,0.64-1.75,0.82
		C104.9,110.95,104.19,111.04,103.45,111.04z"/>
	<path class="st1" d="M113.13,99.53h-0.47c-0.14,0-0.26-0.03-0.37-0.08s-0.16-0.16-0.16-0.31c0-0.07,0.01-0.18,0.03-0.33
		s0.04-0.29,0.08-0.43l0.16-0.7c0.61-0.1,1.32-0.2,2.14-0.27s1.62-0.12,2.4-0.12c0.85,0,1.64,0.11,2.36,0.33s1.34,0.55,1.85,1
		c0.51,0.45,0.91,1.02,1.2,1.72c0.29,0.69,0.43,1.51,0.43,2.44c0,0.88-0.12,1.79-0.35,2.73c-0.23,0.94-0.61,1.79-1.12,2.56
		s-1.16,1.41-1.94,1.91c-0.78,0.5-1.72,0.75-2.81,0.75c-0.5,0-1.01-0.06-1.52-0.18s-0.98-0.33-1.42-0.62l-1.09,5.25h-1.7
		c-0.19,0-0.36-0.03-0.5-0.08c-0.14-0.05-0.21-0.18-0.21-0.39c0-0.14,0.04-0.42,0.13-0.86L113.13,99.53z M116.21,108.7
		c0.78,0,1.43-0.21,1.94-0.62s0.92-0.94,1.22-1.57c0.3-0.63,0.52-1.32,0.64-2.07c0.12-0.75,0.18-1.45,0.18-2.11
		c0-2.03-1.08-3.04-3.26-3.04c-0.43,0-0.83,0.03-1.2,0.08l-1.72,8.68c0.14,0.1,0.39,0.24,0.75,0.4
		C115.14,108.62,115.62,108.7,116.21,108.7z"/>
	<path class="st1" d="M124.69,106.08c0-1.16,0.16-2.27,0.47-3.34c0.31-1.07,0.76-2.01,1.35-2.82c0.59-0.81,1.31-1.47,2.17-1.96
		c0.86-0.49,1.83-0.74,2.93-0.74c1.46,0,2.61,0.42,3.46,1.26c0.85,0.84,1.27,2.08,1.27,3.71c0,1.14-0.15,2.25-0.44,3.33
		c-0.29,1.08-0.73,2.02-1.31,2.83c-0.58,0.82-1.3,1.47-2.16,1.96c-0.86,0.49-1.84,0.74-2.95,0.74c-1.47,0-2.64-0.41-3.5-1.23
		C125.12,108.99,124.69,107.74,124.69,106.08z M127.24,106.03c0,0.83,0.18,1.52,0.55,2.05c0.36,0.54,0.94,0.81,1.74,0.81
		c0.69,0,1.31-0.19,1.85-0.57s0.98-0.89,1.34-1.52c0.36-0.63,0.62-1.35,0.81-2.14c0.18-0.8,0.27-1.61,0.27-2.44
		c0-0.85-0.18-1.54-0.53-2.07c-0.36-0.53-0.92-0.79-1.7-0.79c-0.71,0-1.33,0.19-1.87,0.58c-0.54,0.39-0.99,0.9-1.35,1.52
		s-0.64,1.33-0.82,2.13C127.33,104.38,127.24,105.19,127.24,106.03z"/>
	<path class="st1" d="M146.61,99.86c-0.16-0.03-0.31-0.05-0.46-0.05s-0.27,0-0.38,0c-0.62,0-1.27,0.13-1.95,0.4
		c-0.68,0.27-1.27,0.66-1.77,1.16l-1.87,9.39h-1.82c-0.26,0-0.43-0.05-0.51-0.14c-0.08-0.09-0.12-0.21-0.12-0.35
		c0-0.09,0.02-0.24,0.06-0.47c0.04-0.22,0.08-0.43,0.12-0.62l2.34-11.67h1.56c0.16,0,0.29,0.03,0.39,0.09
		c0.1,0.06,0.16,0.19,0.16,0.38c0,0.09,0,0.19-0.01,0.3c-0.01,0.11-0.02,0.23-0.04,0.35l-0.05,0.65c0.47-0.5,1.04-0.93,1.73-1.29
		c0.68-0.36,1.42-0.53,2.2-0.53c0.54,0,0.81,0.19,0.81,0.57c0,0.1-0.02,0.23-0.05,0.39c-0.03,0.16-0.07,0.31-0.1,0.47L146.61,99.86z
		"/>
	<path class="st1" d="M149.64,99.47h-1.09c-0.4,0-0.6-0.15-0.6-0.44c0-0.09,0.01-0.19,0.04-0.3c0.03-0.11,0.06-0.26,0.09-0.46
		l0.16-0.78h1.77l0.86-3.41h1.66c0.42,0,0.62,0.16,0.62,0.47c0,0.17-0.04,0.45-0.13,0.83l-0.44,2.11h2.66c0.4,0,0.6,0.15,0.6,0.44
		c0,0.09-0.01,0.19-0.04,0.3c-0.03,0.11-0.06,0.26-0.09,0.46l-0.16,0.78h-3.33l-1.53,7.54c-0.04,0.21-0.06,0.39-0.08,0.55
		c-0.02,0.16-0.03,0.29-0.03,0.42c0,0.35,0.1,0.58,0.3,0.71c0.2,0.13,0.45,0.2,0.74,0.2c0.31,0,0.63-0.04,0.96-0.13
		c0.33-0.09,0.55-0.13,0.65-0.13c0.14,0,0.24,0.05,0.31,0.14s0.13,0.24,0.18,0.43l0.21,0.94c-0.45,0.24-0.95,0.43-1.51,0.57
		c-0.56,0.14-1.12,0.21-1.69,0.21c-0.87,0-1.54-0.22-2.03-0.65c-0.49-0.43-0.73-1.07-0.73-1.9c0-0.36,0.03-0.74,0.09-1.12
		c0.06-0.38,0.13-0.76,0.22-1.14L149.64,99.47z"/>
	<path class="st1" d="M158.44,105.84v0.47c0,0.8,0.17,1.43,0.51,1.88c0.34,0.46,0.97,0.69,1.88,0.69c0.55,0,1.04-0.06,1.47-0.18
		c0.42-0.12,0.76-0.22,1-0.31c0.17-0.05,0.31-0.1,0.42-0.13c0.1-0.04,0.21-0.05,0.31-0.05c0.16,0,0.27,0.05,0.34,0.16
		c0.07,0.1,0.15,0.28,0.23,0.52l0.29,0.88c-0.54,0.35-1.18,0.65-1.94,0.9s-1.57,0.38-2.46,0.38c-0.71,0-1.35-0.09-1.91-0.29
		c-0.56-0.19-1.04-0.49-1.43-0.9s-0.69-0.93-0.91-1.56s-0.33-1.4-0.33-2.3c0-0.94,0.13-1.92,0.38-2.96
		c0.25-1.04,0.65-1.99,1.21-2.85c0.55-0.86,1.26-1.57,2.12-2.13c0.86-0.56,1.9-0.85,3.13-0.85c1.25,0,2.24,0.32,2.98,0.95
		c0.74,0.63,1.1,1.53,1.1,2.69c0,0.61-0.12,1.21-0.36,1.79c-0.24,0.59-0.66,1.12-1.26,1.6c-0.6,0.48-1.4,0.86-2.4,1.16
		c-1.01,0.29-2.27,0.44-3.8,0.44H158.44z M159.16,103.97c1.75,0,3.07-0.27,3.97-0.82c0.89-0.55,1.34-1.28,1.34-2.2
		c0-0.5-0.15-0.92-0.44-1.25c-0.29-0.33-0.77-0.49-1.43-0.49c-0.59,0-1.11,0.13-1.56,0.4c-0.45,0.27-0.84,0.62-1.17,1.07
		c-0.33,0.44-0.6,0.95-0.81,1.52s-0.36,1.16-0.44,1.77H159.16z"/>
	<path class="st1" d="M171.41,111.04c-0.71,0-1.38-0.08-2.02-0.23c-0.63-0.16-1.12-0.31-1.47-0.47c-0.26-0.12-0.45-0.24-0.57-0.35
		c-0.12-0.11-0.18-0.26-0.18-0.46c0-0.12,0.02-0.26,0.07-0.42c0.04-0.16,0.09-0.3,0.14-0.44l0.21-0.57
		c0.09,0.05,0.26,0.12,0.51,0.21s0.55,0.17,0.88,0.26s0.71,0.17,1.11,0.23c0.4,0.07,0.8,0.1,1.2,0.1c0.38,0,0.76-0.03,1.13-0.1
		c0.37-0.07,0.71-0.18,1-0.34c0.29-0.16,0.53-0.36,0.7-0.62c0.17-0.26,0.26-0.59,0.26-0.99c0-0.42-0.15-0.77-0.46-1.05
		c-0.3-0.29-0.87-0.58-1.7-0.87c-0.47-0.17-0.91-0.36-1.34-0.55s-0.8-0.42-1.13-0.7c-0.33-0.28-0.59-0.6-0.78-0.98
		c-0.19-0.37-0.29-0.82-0.29-1.34c0-0.68,0.14-1.27,0.42-1.79c0.28-0.52,0.66-0.96,1.14-1.31c0.48-0.36,1.05-0.62,1.7-0.79
		c0.65-0.17,1.35-0.26,2.09-0.26c0.83,0,1.52,0.09,2.08,0.26c0.55,0.17,0.93,0.3,1.12,0.39c0.24,0.12,0.42,0.24,0.52,0.36
		c0.1,0.12,0.16,0.25,0.16,0.39c0,0.19-0.06,0.45-0.18,0.78l-0.23,0.6c-0.26-0.12-0.71-0.27-1.34-0.44
		c-0.63-0.17-1.34-0.26-2.12-0.26c-0.31,0-0.63,0.03-0.96,0.08c-0.33,0.05-0.63,0.15-0.9,0.29s-0.49,0.33-0.68,0.57
		c-0.18,0.24-0.27,0.56-0.27,0.96c0,0.23,0.05,0.42,0.14,0.58c0.09,0.17,0.24,0.31,0.44,0.44c0.2,0.13,0.45,0.26,0.75,0.39
		c0.3,0.13,0.66,0.27,1.08,0.43c0.47,0.19,0.9,0.39,1.3,0.6c0.4,0.21,0.74,0.45,1.04,0.73s0.52,0.6,0.69,0.97
		c0.17,0.37,0.25,0.82,0.25,1.34c0,0.73-0.15,1.36-0.44,1.91c-0.29,0.55-0.69,1-1.18,1.37s-1.08,0.64-1.75,0.82
		C172.87,110.95,172.15,111.04,171.41,111.04z"/>
</g>
</svg>
