<?xml version="1.0" encoding="utf-8"?>
<!-- Generator: Adobe Illustrator 23.0.1, SVG Export Plug-In . SVG Version: 6.00 Build 0)  -->
<svg version="1.1" id="Capa_1" xmlns="http://www.w3.org/2000/svg" xmlns:xlink="http://www.w3.org/1999/xlink" x="0px" y="0px"
	 viewBox="0 0 512 512" style="enable-background:new 0 0 512 512;" xml:space="preserve">
<style type="text/css">
	.st0{fill:#1AB7D1;}
</style>
<title>026 - Packed Boxes</title>
<desc>Created with Sketch.</desc>
<g id="Page-1">
	<g>
		<path id="Shape" class="st0" d="M477.9,0H358.4c-4.2,0-7.7,3-8.4,7.1l-25.6,153.6c-0.4,2.5,0.3,5,1.9,6.9c1.6,1.9,4,3,6.5,3h76.8
			v290.1h-34.1c-14.1,0-25.6,11.5-25.6,25.6v17.1c0,4.7,3.8,8.5,8.5,8.5h119.5c4.7,0,8.5-3.8,8.5-8.5v-17.1
			c0-14.1-11.5-25.6-25.6-25.6h-34.1V170.7h34.1v44.2c-11.8,4.2-18.8,16.2-16.7,28.5c2.1,12.3,12.8,21.3,25.2,21.3
			c12.5,0,23.1-9,25.2-21.3c2.1-12.3-4.9-24.3-16.7-28.5v-44.2h25.6c2.5,0,4.9-1.1,6.5-3c1.6-1.9,2.3-4.4,1.9-6.9L486.3,7.1
			C485.6,3,482,0,477.9,0z M469.3,486.4v8.5H366.9v-8.5c0-4.7,3.8-8.5,8.5-8.5h85.3C465.5,477.9,469.3,481.7,469.3,486.4z
			 M469.3,247.5c-4.7,0-8.5-3.8-8.5-8.5c0-4.7,3.8-8.5,8.5-8.5c4.7,0,8.5,3.8,8.5,8.5C477.9,243.6,474,247.5,469.3,247.5z
			 M342.9,153.6l22.7-136.5h105l22.7,136.5H342.9z"/>
		<path class="st0" d="M361.6,332.2c3.1-1.2,5.2-4.2,5.4-7.6c0.1-3.4-1.7-6.5-4.7-8c-13.5-5.8-28.8-6-42.5-0.7
			c-1.8,0.7-3.5,1.6-5.2,2.4c-2.5-40.4,3.5-80.8,17.6-118.8c1.4-3.2,0.7-6.9-1.8-9.4c-2.5-2.5-6.2-3.2-9.4-1.8
			c-13.5,7.4-25,18-33.4,30.9c-4.2-8.8-13.2-14.5-23-14.5h-27.2c1-2.7,1.5-5.6,1.6-8.5V25.6c0-14.1-11.5-25.6-25.6-25.6H42.7
			C28.5,0,17.1,11.5,17.1,25.6v170.7c0,3.3,0.6,6.5,1.9,9.5C7.8,208.8,0,218.9,0,230.4v256C0,500.5,11.5,512,25.6,512h281.6
			c4.1,0,7.6-2.9,8.4-6.8l16-80.2c5.9-2.8,9.7-8.8,9.7-15.4v-17.1c0-6.4-3.7-12.3-9.4-15.1C329,346,360.2,332.7,361.6,332.2z
			 M325.5,332.1c2.9-1.2,6-2,9.1-2.4c-13.2,11.5-20.5,28.4-19.9,45.9h-28.6C297.1,352.8,310.5,337.9,325.5,332.1z M110.9,221.9h70.2
			c4.5,6,9.7,13.4,15.1,22v53.6l-37.2-31c-3.2-2.6-7.8-2.6-10.9,0l-37.2,31V221.9z M207.6,220.7c22.7,13,40.5,33.3,50.3,57.5
			c-4.4,12.9-8.1,26.1-10.9,39.4c-10.2-36.9-27-71.7-49.6-102.6C200.6,216.7,204.1,218.5,207.6,220.7z M213.3,275.1
			c5.8,12.1,10.7,24.7,14.6,37.5c-4.7-3.4-9.7-6.2-15-8.4c0.2-0.7,0.4-1.4,0.4-2.1V275.1z M235.9,346.7c1.1,7.1,2,13.9,2.4,21
			c0.2,2.4,0.4,5,0.5,7.7H220c-7.9-25.3-25.7-46.5-49.3-58.7c4.2-0.7,8.5-1.1,12.7-1.1C205.3,315.5,225.5,327.4,235.9,346.7
			L235.9,346.7z M204.8,392.5h119.5v17.1H204.8V392.5z M306.9,222.3c-9,34.9-11.9,71.1-8.5,107c-13.5,13-24,28.7-30.9,46.1h-11.6
			c-0.1-2.2-0.2-4.2-0.3-6.1c0.2-0.5,0.3-0.9,0.4-1.4C265.6,285.6,289.4,243.1,306.9,222.3z M273.1,230.4v12.3
			c-2.2,4.3-4.4,8.9-6.6,13.8c-7.4-13.1-17-24.8-28.3-34.6h26.5C269.2,221.9,273.1,225.7,273.1,230.4z M162.1,17.1v61.7L132.4,61
			c-2.7-1.6-6.1-1.6-8.8,0L93.9,78.8V17.1H162.1z M34.1,25.6c0-4.7,3.8-8.5,8.5-8.5h34.1v76.8c0,3.1,1.7,5.9,4.3,7.4
			c2.7,1.5,6,1.5,8.6-0.1l38.3-23l38.3,23c2.6,1.6,5.9,1.6,8.6,0.1c2.7-1.5,4.3-4.4,4.3-7.4V17.1h34.1c4.7,0,8.5,3.8,8.5,8.5v170.7
			c0,4.4-3.5,8.1-7.9,8.4c-13-7.6-27-13.3-41.6-16.8c-3.7-0.7-7.4,1-9.2,4.4c-1.8,3.3-1.2,7.4,1.5,10c0,0,0.9,0.9,2.4,2.5H42.7
			c-4.7,0-8.5-3.8-8.5-8.5V25.6z M17.1,486.4v-256c0-4.7,3.8-8.5,8.5-8.5h68.3v93.9c0,3.3,1.9,6.3,4.9,7.7c3,1.4,6.5,0.9,9.1-1.2
			l45.7-38.1l18.4,15.4c-10.6,1.3-21,4.2-30.8,8.5c-3.1,1.6-5,4.9-4.7,8.4c0.3,3.5,2.8,6.4,6.2,7.4c27,6.6,49.1,25.9,59.3,51.8
			c-8.2,1.3-14.3,8.5-14.3,16.8v17.1c0,6.6,3.8,12.5,9.7,15.4l14,70H25.6C20.9,494.9,17.1,491.1,17.1,486.4z M300.2,494.9h-71.4
			l-13.7-68.3h98.7L300.2,494.9z"/>
		<path class="st0" d="M51.2,375.5h68.3c4.7,0,8.5-3.8,8.5-8.5s-3.8-8.5-8.5-8.5H51.2c-4.7,0-8.5,3.8-8.5,8.5S46.5,375.5,51.2,375.5
			z"/>
		<path class="st0" d="M145.1,392.5H51.2c-4.7,0-8.5,3.8-8.5,8.5s3.8,8.5,8.5,8.5h93.9c4.7,0,8.5-3.8,8.5-8.5
			S149.8,392.5,145.1,392.5z"/>
		<path class="st0" d="M119.5,426.7H51.2c-4.7,0-8.5,3.8-8.5,8.5s3.8,8.5,8.5,8.5h68.3c4.7,0,8.5-3.8,8.5-8.5
			S124.2,426.7,119.5,426.7z"/>
		<path class="st0" d="M68.3,145.1h51.2c4.7,0,8.5-3.8,8.5-8.5s-3.8-8.5-8.5-8.5H68.3c-4.7,0-8.5,3.8-8.5,8.5S63.6,145.1,68.3,145.1
			z"/>
		<path class="st0" d="M68.3,179.2h51.2c4.7,0,8.5-3.8,8.5-8.5c0-4.7-3.8-8.5-8.5-8.5H68.3c-4.7,0-8.5,3.8-8.5,8.5
			C59.7,175.4,63.6,179.2,68.3,179.2z"/>
	</g>
</g>
</svg>
