<?xml version="1.0" encoding="utf-8"?>
<!-- Generator: Adobe Illustrator 23.0.1, SVG Export Plug-In . SVG Version: 6.00 Build 0)  -->
<svg version="1.1" id="Layer_1" xmlns="http://www.w3.org/2000/svg" xmlns:xlink="http://www.w3.org/1999/xlink" x="0px" y="0px"
	 viewBox="0 0 512.9 512.9" style="enable-background:new 0 0 512.9 512.9;" xml:space="preserve">
<style type="text/css">
	.st0{fill:#1AB7D1;}
</style>
<g transform="translate(1 1)">
	<g>
		<g>
			<path class="st0" d="M85.8,372.6c-9.5,0-17.4,7.8-17.4,17.4s7.8,17.4,17.4,17.4s17.4-7.8,17.4-17.4
				C103.1,380.4,95.3,372.6,85.8,372.6z"/>
			<path class="st0" d="M406.9,372.6c-9.5,0-17.4,7.8-17.4,17.4s7.8,17.4,17.4,17.4s17.4-7.8,17.4-17.4
				C424.2,380.4,416.4,372.6,406.9,372.6z"/>
			<path class="st0" d="M504.1,231.1l-75.5-83.3c-6.1-6.1-13.9-9.5-21.7-9.5h-46H327c-13.9,0-24.3,10.4-24.3,23.4v132.8h-22.6
				l-89.1-34.7h74.3c11.3,0,20-8.7,20-20v-12.1c0-11.3-8.7-20-20-20H246c1.6-2.7,2.8-5.6,3.6-8.7h13.3c13,0,22.6-9.5,22.6-21.7
				v-33.8c0-13-9.5-22.6-21.7-22.6h-17.2l-34.8-48.6c-5.2-7.8-13.9-12.1-23.4-12.1h-83.3c-9.5,0-18.2,4.3-23.4,12.1l-34.8,48.6H30.2
				c-13,0-22.6,9.5-22.6,22.6v33c0,13,9.5,22.6,22.6,22.6h13.3c0.8,3.1,2,6,3.6,8.7H27.6c-11.3,0-20,8.7-20,20v12.1
				c0,11.3,8.7,20,20,20h74.6l-88.5,34.7H-1v83.3c0,11.3,9.5,20.8,20.8,20.8h5.8c4.1,29.6,29.2,52.1,60.1,52.1s56-22.4,60.1-52.1
				h200.8c4.1,29.6,29.2,52.1,60.1,52.1s56-22.4,60.1-52.1h23.2c11.3,0,20.8-9.5,21.7-20V259.8v-8.7
				C511.9,243.3,509.3,236.3,504.1,231.1z M110.7,199h71.6c0.8,3.1,2,6,3.6,8.7h-78.8C108.7,205,109.9,202.1,110.7,199z
				 M198.6,190.3c0-9.5,7.8-17.4,17.4-17.4s17.4,7.8,17.4,17.4s-7.8,17.4-17.4,17.4S198.6,199.9,198.6,190.3z M196.9,81.9l27.8,39.1
				h-69.4V77.5h33C191.7,77.5,195.1,79.3,196.9,81.9z M95.3,81.9c2.6-2.6,6.1-4.3,9.5-4.3h33v43.4H67.6L95.3,81.9z M25,177.3v-33.8
				c0-2.6,2.6-5.2,5.2-5.2h20.8H242h20.8c2.6,0,5.2,2.6,6.1,5.2v33c0,2.6-2.6,5.2-5.2,5.2h-13.9c-4.3-14.8-15.6-26-32.1-26
				c-0.3,0-0.6,0-0.9,0c-0.3,0-0.5,0-0.8,0c-16.1,0-29.7,11.1-33.6,26h-70.5c-4.3-14.8-17.4-26-33.8-26c-0.2,0-0.3,0-0.5,0
				c-0.1,0-0.3,0-0.4,0c-16.1,0-29.7,11.1-33.6,26H30.2C27.6,181.7,25,179.1,25,177.3z M59.7,190.3c0-9.5,7.8-17.4,17.4-17.4
				s17.4,7.8,17.4,17.4s-7.8,17.4-17.4,17.4S59.7,199.9,59.7,190.3z M27.6,242.4c-1.7,0-2.6-0.9-2.6-2.6v-12.1
				c0-1.7,0.9-2.6,2.6-2.6h237.8c1.7,0,2.6,0.9,2.6,2.6v12.1c0,1.7-0.9,2.6-2.6,2.6H27.6z M406.9,155.6c3.5,0,6.1,0.9,8.7,3.5
				l74.6,83.3H363.5v-86.8L406.9,155.6L406.9,155.6z M146.5,260.6l85.2,33.8H61.3L146.5,260.6z M85.8,433.3
				c-24.3,0-43.4-19.1-43.4-43.4c0-24.3,19.1-43.4,43.4-43.4s43.4,19.1,43.4,43.4C129.2,414.2,110.1,433.3,85.8,433.3z M406.9,433.3
				c-24.3,0-43.4-19.1-43.4-43.4c0-24.3,19.1-43.4,43.4-43.4s43.4,19.1,43.4,43.4C450.3,414.2,431.2,433.3,406.9,433.3z
				 M490.2,381.3H467c-4.1-29.6-29.2-52.1-60.1-52.1c-0.1,0-0.3,0-0.4,0c-0.1,0-0.3,0-0.4,0c-30.4,0-55.5,22.6-59.9,52.1H145.9
				c-3.9-27.8-26.2-49.2-54.4-51.8c-0.2,0-0.4,0-0.6,0c-0.7-0.1-1.4-0.1-2.2-0.1c-1,0-2-0.1-2.9-0.1s-2,0-2.9,0.1
				c-0.7,0-1.4,0.1-2.2,0.1c-0.2,0-0.4,0-0.6,0c-28.2,2.6-50.6,24-54.4,51.8h-5.8c-1.7,0-3.5-1.7-3.5-3.5v-66h303.7V162.6
				c0-4.3,3.5-6.9,6.9-6.9h19.1V245c0,7.8,6.9,14.8,14.8,14.8h132.8v26h-43.4c-5.2,0-8.7,3.5-8.7,8.7s3.5,8.7,8.7,8.7h43.4v74.6
				C493.6,379.5,491.9,381.3,490.2,381.3z"/>
		</g>
	</g>
</g>
</svg>
