<?xml version="1.0" encoding="utf-8"?>
<!-- Generator: Adobe Illustrator 23.0.1, SVG Export Plug-In . SVG Version: 6.00 Build 0)  -->
<svg version="1.1" id="Capa_1" xmlns="http://www.w3.org/2000/svg" xmlns:xlink="http://www.w3.org/1999/xlink" x="0px" y="0px"
	 viewBox="0 0 512 512" style="enable-background:new 0 0 512 512;" xml:space="preserve">
<style type="text/css">
	.st0{fill:#1AB7D1;}
</style>
<title>021 - Moving Van Delivery</title>
<desc>Created with Sketch.</desc>
<g id="Page-1">
	<g>
		<path id="Shape" class="st0" d="M332.9,3.3c-5-4.5-12.5-4.4-17.4,0.2L147.6,165.4c-3.9,3.6-5.3,9.2-3.4,14.1
			c1.9,4.9,6.7,8.2,12,8.2h6v34.1H25.6C11.5,221.9,0,233.3,0,247.5v247.5c0,9.4,7.6,17.1,17.1,17.1h17.1c9.4,0,17.1-7.6,17.1-17.1
			v-17.1h119.5v17.1c0,9.4,7.6,17.1,17.1,17.1h17.1c9.4,0,17.1-7.6,17.1-17.1v-68.3h17.1v17.1c0,3,0.8,6,2.4,8.5
			c-1.5,2.6-2.4,5.5-2.4,8.5v34.1c0,9.4,7.6,17.1,17.1,17.1h34.1c3,0,6-0.8,8.5-2.4c2.6,1.5,5.5,2.4,8.5,2.4h34.1
			c9.4,0,17.1-7.6,17.1-17.1v-34.1c0-9.4-7.6-17.1-17.1-17.1h-34.1v-17.1h162.1c9.4,0,17.1-7.6,17.1-17.1V187.7h6
			c5.2,0,10-3.2,11.9-8.1c1.9-4.9,0.7-10.4-3.1-14L332.9,3.3z M324.3,18.7l157.6,151.9H366.9v-51.2c0-2.3-0.9-4.4-2.5-6l-34.1-34.1
			c-3.3-3.3-8.7-3.3-12.1,0l-34.1,34.1c-1.6,1.6-2.5,3.8-2.5,6v51.2H166.7L324.3,18.7z M298.7,123l25.6-25.6l25.6,25.6v98.9h-51.2
			V123z M17.1,247.5c0-4.7,3.8-8.5,8.5-8.5h170.7c4.7,0,8.5,3.8,8.5,8.5v25.6H17.1V247.5z M42.7,290.1h162.1v85.3h-59.7v-8.5h34.1
			c4.7,0,8.5-3.8,8.5-8.5s-3.8-8.5-8.5-8.5h-34.1c-9.4,0-17.1,7.6-17.1,17.1v8.5H51.2v-8.5h34.1c4.7,0,8.5-3.8,8.5-8.5
			s-3.8-8.5-8.5-8.5H51.2c-9.4,0-17.1,7.6-17.1,17.1v8.5H17.1v-85.3H42.7z M17.1,392.5h17.1v25.6H17.1V392.5z M51.2,418.1v-25.6
			h119.5v34.1H51.2V418.1z M187.7,392.5h17.1v25.6h-17.1V392.5z M221.9,307.2h25.6v59.7h-25.6V307.2z M213.3,228.5v-6.7h34.1V256
			h-25.6v-8.5C221.8,240.2,218.7,233.3,213.3,228.5z M34.1,494.9H17.1v-59.7h17.1V494.9z M51.2,460.8v-17.1h119.5v17.1H51.2z
			 M204.8,494.9h-17.1v-59.7h17.1V494.9z M290.1,409.6v34.1H256v-34.1H290.1z M256,494.9v-34.1h34.1v34.1H256z M341.3,460.8v34.1
			h-34.1v-34.1H341.3z M307.2,409.6c0-6.1-3.3-11.7-8.5-14.7v-87.7h51.2v102.4H307.2z M469.3,409.6H366.9V302.9
			c0-7.1-5.7-12.8-12.8-12.8h-59.7c-7.1,0-12.8,5.7-12.8,12.8v89.6H256c-9.4,0-17.1,7.6-17.1,17.1h-17.1V384H256
			c4.7,0,8.5-3.8,8.5-8.5v-76.8c0-4.7-3.8-8.5-8.5-8.5h-34.1v-17.1H256c4.7,0,8.5-3.8,8.5-8.5v-51.2c0-4.7-3.8-8.5-8.5-8.5h-51.2
			c-4.7,0-8.5,3.8-8.5,8.5v8.5h-17.1v-34.1h102.4v42.7c0,4.7,3.8,8.5,8.5,8.5h68.3c4.7,0,8.5-3.8,8.5-8.5v-42.7h102.4V409.6z"/>
		<path class="st0" d="M327.5,188.4c-2.1-0.9-4.4-0.9-6.5,0c-1,0.4-2,1-2.8,1.8c-3.3,3.4-3.3,8.8,0,12.1c0.8,0.8,1.8,1.4,2.8,1.8
			c2.1,0.9,4.4,0.9,6.5,0c1-0.4,2-1,2.8-1.8c0.4-0.4,0.7-0.8,1-1.3c0.3-0.5,0.6-1,0.8-1.5c0.2-0.5,0.4-1,0.5-1.5
			c0.1-0.6,0.2-1.1,0.2-1.7c0-2.3-0.9-4.4-2.5-6.1C329.5,189.5,328.5,188.8,327.5,188.4z"/>
		<path class="st0" d="M332.8,153.6v-17.1c0-4.7-3.8-8.5-8.5-8.5s-8.5,3.8-8.5,8.5v17.1c-4.7,0-8.5,3.8-8.5,8.5
			c0,4.7,3.8,8.5,8.5,8.5h17.1c4.7,0,8.5-3.8,8.5-8.5C341.3,157.4,337.5,153.6,332.8,153.6z"/>
		<path class="st0" d="M340.7,355.2c-0.2-0.5-0.4-1.1-0.8-1.5l-1-1.3c-0.8-0.8-1.8-1.4-2.8-1.8c-2.1-0.9-4.4-0.9-6.5,0
			c-1,0.4-2,1-2.8,1.8l-1,1.3c-0.3,0.5-0.6,1-0.8,1.5c-0.3,0.5-0.4,1.1-0.5,1.6c-0.1,0.5-0.2,1.1-0.2,1.6c0,2.3,0.9,4.4,2.5,6.1
			c0.8,0.8,1.8,1.4,2.8,1.8c1,0.4,2.1,0.7,3.2,0.7c2.3,0,4.5-0.9,6.1-2.5c1.6-1.6,2.5-3.8,2.5-6.1c0-0.5-0.1-1.1-0.2-1.6
			C341.1,356.2,340.9,355.7,340.7,355.2z"/>
		<path class="st0" d="M392.5,384h51.2c4.7,0,8.5-3.8,8.5-8.5v-76.8c0-4.7-3.8-8.5-8.5-8.5h-51.2c-4.7,0-8.5,3.8-8.5,8.5v76.8
			C384,380.2,387.8,384,392.5,384z M401.1,307.2h34.1v59.7h-34.1V307.2z"/>
		<path class="st0" d="M392.5,273.1h51.2c4.7,0,8.5-3.8,8.5-8.5v-51.2c0-4.7-3.8-8.5-8.5-8.5h-51.2c-4.7,0-8.5,3.8-8.5,8.5v51.2
			C384,269.2,387.8,273.1,392.5,273.1z M401.1,221.9h34.1V256h-34.1V221.9z"/>
		<path class="st0" d="M145.1,401.1H76.8c-4.7,0-8.5,3.8-8.5,8.5c0,4.7,3.8,8.5,8.5,8.5h68.3c4.7,0,8.5-3.8,8.5-8.5
			C153.6,404.9,149.8,401.1,145.1,401.1z"/>
		<path class="st0" d="M477.9,443.7h-34.1c-9.4,0-17.1,7.6-17.1,17.1v34.1c0,9.4,7.6,17.1,17.1,17.1h34.1c9.4,0,17.1-7.6,17.1-17.1
			v-34.1C494.9,451.4,487.3,443.7,477.9,443.7z M443.7,494.9v-34.1h34.1v34.1H443.7z"/>
	</g>
</g>
</svg>
