<?xml version="1.0" encoding="utf-8"?>
<!-- Generator: Adobe Illustrator 23.0.1, SVG Export Plug-In . SVG Version: 6.00 Build 0)  -->
<svg version="1.1" id="Capa_1" xmlns="http://www.w3.org/2000/svg" xmlns:xlink="http://www.w3.org/1999/xlink" x="0px" y="0px"
	 viewBox="0 0 512 512" style="enable-background:new 0 0 512 512;" xml:space="preserve">
<style type="text/css">
	.st0{fill:#1AB7D1;}
</style>
<title>005 - Moving Van</title>
<desc>Created with Sketch.</desc>
<g id="Page-1">
	<g>
		<path id="Shape" class="st0" d="M494.9,360v-78.4c0-14.1-11.5-25.6-25.6-25.6h-28l-28.4-85.3h22.3c14.1,0,25.6-11.5,25.6-25.6
			V59.7c0-14.1-11.5-25.6-25.6-25.6H42.7c-14.1,0-25.6,11.5-25.6,25.6V360c-11.7,4.1-18.8,16.1-16.7,28.4
			c2.1,12.3,12.8,21.2,25.2,21.2h26.3c-2.9,18.9,3.6,38,17.3,51.2h-18c-4.7,0-8.5,3.8-8.5,8.5s3.8,8.5,8.5,8.5h59.7
			c17.4,0.1,33.9-7.4,45.3-20.5c11.4-13.1,16.4-30.6,13.8-47.8h163.5c-2.9,18.9,3.6,38,17.3,51.2h-18c-4.7,0-8.5,3.8-8.5,8.5
			s3.8,8.5,8.5,8.5h59.7c17.4,0.1,33.9-7.4,45.3-20.5s16.4-30.6,13.8-47.8h34.8c12.5,0,23.1-8.9,25.2-21.2
			C513.7,376.1,506.7,364.1,494.9,360z M401.1,358.4c-0.7,0.1-1.3,0.2-1.9,0.4c-2.2-0.2-4.4-0.4-6.6-0.4c-21,0-40.4,11.1-51.2,29.1
			V273.1h102.4v17.1c0,9.4,7.6,17.1,17.1,17.1h17.1v51.2H401.1z M469.3,273.1c4.7,0,8.5,3.8,8.5,8.5v8.5h-17.1v-17.1H469.3z
			 M423.4,256h-82v-76.8c0-4.7,3.8-8.5,8.5-8.5h45L423.4,256z M25.6,392.5c-4.7,0-8.5-3.8-8.5-8.5s3.8-8.5,8.5-8.5h43.6
			c-5,4.9-9.1,10.7-12.2,17.1H25.6z M110.9,460.8c-23.6,0-42.7-19.1-42.7-42.7c0-23.6,19.1-42.7,42.7-42.7s42.7,19.1,42.7,42.7
			C153.6,441.7,134.5,460.8,110.9,460.8z M110.9,358.4H34.1V59.7c0-4.7,3.8-8.5,8.5-8.5h392.5c4.7,0,8.5,3.8,8.5,8.5v85.3
			c0,4.7-3.8,8.5-8.5,8.5h-85.3c-14.1,0-25.6,11.5-25.6,25.6v213.3H164.8C154.9,371.7,134,358.4,110.9,358.4z M392.5,460.8
			c-23.6,0-42.7-19.1-42.7-42.7c0-23.6,19.1-42.7,42.7-42.7c23.6,0,42.7,19.1,42.7,42.7C435.2,441.7,416.1,460.8,392.5,460.8z
			 M486.4,392.5h-40c-3-6.4-7.1-12.1-12.2-17.1h52.1c4.7,0,8.5,3.8,8.5,8.5S491.1,392.5,486.4,392.5z"/>
		<path class="st0" d="M110.9,392.5c-14.1,0-25.6,11.5-25.6,25.6c0,14.1,11.5,25.6,25.6,25.6s25.6-11.5,25.6-25.6
			C136.5,404,125.1,392.5,110.9,392.5z M110.9,426.7c-4.7,0-8.5-3.8-8.5-8.5s3.8-8.5,8.5-8.5c4.7,0,8.5,3.8,8.5,8.5
			S115.6,426.7,110.9,426.7z"/>
		<path class="st0" d="M392.5,392.5c-14.1,0-25.6,11.5-25.6,25.6c0,14.1,11.5,25.6,25.6,25.6s25.6-11.5,25.6-25.6
			C418.1,404,406.7,392.5,392.5,392.5z M392.5,426.7c-4.7,0-8.5-3.8-8.5-8.5s3.8-8.5,8.5-8.5s8.5,3.8,8.5,8.5
			S397.2,426.7,392.5,426.7z"/>
		<path class="st0" d="M366.9,213.3c2.3,0,4.4-0.9,6-2.5l8.5-8.5c3.2-3.3,3.2-8.7-0.1-12c-3.3-3.3-8.6-3.3-12-0.1l-8.5,8.5
			c-2.4,2.4-3.2,6.1-1.8,9.3C360.4,211.3,363.5,213.3,366.9,213.3z"/>
		<path class="st0" d="M369.4,245c3.3,3.3,8.7,3.3,12.1,0l17.1-17.1c3.2-3.3,3.2-8.7-0.1-12c-3.3-3.3-8.6-3.3-12-0.1l-17.1,17.1
			C366.1,236.2,366.1,241.6,369.4,245z"/>
		<path class="st0" d="M295,163.7L184.1,86.9c-2.9-2-6.8-2-9.7,0L63.4,163.7c-2.3,1.6-3.7,4.2-3.7,7v42.7c0,3.2,1.8,6.1,4.6,7.6
			c2.8,1.5,6.2,1.3,8.8-0.5l12.2-8.4v103.8c0,9.4,7.6,17.1,17.1,17.1H256c9.4,0,17.1-7.6,17.1-17.1V211.9l12.2,8.4
			c2.6,1.8,6,2,8.8,0.5c2.8-1.5,4.6-4.4,4.6-7.6v-42.7C298.7,167.9,297.3,165.2,295,163.7z M153.6,315.7v-85.3h51.2v85.3H153.6z
			 M256,315.7h-34.1v-85.3c0-9.4-7.6-17.1-17.1-17.1h-51.2c-9.4,0-17.1,7.6-17.1,17.1v85.3h-34.1V200.1l76.8-53.2l76.8,53.2V315.7z
			 M281.6,197l-97.5-67.5c-2.9-2-6.8-2-9.7,0L76.8,197v-21.9l102.4-70.9l102.4,70.9V197z"/>
		<path class="st0" d="M341.3,85.3h76.8c4.7,0,8.5-3.8,8.5-8.5s-3.8-8.5-8.5-8.5h-76.8c-4.7,0-8.5,3.8-8.5,8.5
			S336.6,85.3,341.3,85.3z"/>
		<path class="st0" d="M307.2,68.3h-8.5c-4.7,0-8.5,3.8-8.5,8.5s3.8,8.5,8.5,8.5h8.5c4.7,0,8.5-3.8,8.5-8.5S311.9,68.3,307.2,68.3z"
			/>
		<path class="st0" d="M17.1,477.9c4.7,0,8.5-3.8,8.5-8.5s-3.8-8.5-8.5-8.5H8.5c-4.7,0-8.5,3.8-8.5,8.5s3.8,8.5,8.5,8.5H17.1z"/>
		<path class="st0" d="M298.7,477.9c4.7,0,8.5-3.8,8.5-8.5s-3.8-8.5-8.5-8.5h-8.5c-4.7,0-8.5,3.8-8.5,8.5s3.8,8.5,8.5,8.5H298.7z"/>
	</g>
</g>
</svg>
