<?xml version="1.0" encoding="utf-8"?>
<!-- Generator: Adobe Illustrator 23.0.1, SVG Export Plug-In . SVG Version: 6.00 Build 0)  -->
<svg version="1.1" id="Capa_1" xmlns="http://www.w3.org/2000/svg" xmlns:xlink="http://www.w3.org/1999/xlink" x="0px" y="0px"
	 viewBox="0 0 512 512" style="enable-background:new 0 0 512 512;" xml:space="preserve">
<style type="text/css">
	.st0{fill:#1AB7D1;}
</style>
<title>018 - Packing</title>
<desc>Created with Sketch.</desc>
<g id="Page-1">
	<g>
		<path id="Shape" class="st0" d="M17.8,353.3c1.1,2.4,3.2,4.2,5.8,4.8l44.6,10.6v85.3c0,7.9,5.4,14.8,13.1,16.6L254,511.8
			c1.3,0.3,2.6,0.3,3.9,0l172.7-41.1c7.7-1.8,13.1-8.7,13.1-16.6v-85.3l44.6-10.6c2.6-0.6,4.7-2.4,5.8-4.8c1.1-2.4,1-5.2-0.3-7.6
			l-49-89.8l49-89.8c1.3-2.3,1.4-5.1,0.3-7.6c-1.1-2.4-3.2-4.2-5.8-4.8l-148.9-35.5L289.4,9.9C286.2,3,278.7-1,271.2,0.2L149.2,20.1
			c-7.6,1.3-13.4,7.4-14.2,15l-10.4,94.7l-101,24c-2.6,0.6-4.7,2.4-5.8,4.8c-1.1,2.4-1,5.2,0.3,7.6l49,89.8l-49,89.8
			C16.8,348.1,16.7,350.9,17.8,353.3z M85.3,372.9l117.5,28c0.6,0.2,1.3,0.2,2,0.2c3.1,0,6-1.7,7.5-4.4l35.2-64.5v160.5l-25.6-6.1
			v-34.3c0-4.7-3.8-8.5-8.5-8.5s-8.5,3.8-8.5,8.5v30.2l-17.1-4.1v-17.6c0-4.7-3.8-8.5-8.5-8.5c-4.7,0-8.5,3.8-8.5,8.5v13.6
			l-17.1-4.1v-35.1c0-4.7-3.8-8.5-8.5-8.5c-4.7,0-8.5,3.8-8.5,8.5v31.1l-17.1-4.1v-18.4c0-4.7-3.8-8.5-8.5-8.5
			c-4.7,0-8.5,3.8-8.5,8.5v14.4l-17.1-4.1V372.9z M145.4,248.4c1,5.5,2.5,10.9,4.4,16.2l-36.1-8.6L145.4,248.4z M170.8,269.6
			c-4.5-8.3-7.6-17.3-9.2-26.6c-0.3-1.9-0.5-3.8-0.7-5.8c-1.5-16.4,1.7-33,9.4-47.6l23.3-3.8c-7.7,17.2-9.7,36.4-5.8,54.8
			c0.8,4,4.3,6.8,8.4,6.8c0.6,0,1.1-0.1,1.7-0.2c4.6-0.9,7.6-5.4,6.7-10c-4.2-19-0.4-38.8,10.5-55l89.9-14.7
			c13.3,12.8,22.2,29.5,25.2,47.7c0.9,5.8,1.3,11.7,1.1,17.6c-0.7,15.1-5.4,29.7-13.7,42.3L256,289.9L170.8,269.6z M347.3,243.9
			l51.1,12.1l-58.5,13.9C343.5,261.6,346,252.8,347.3,243.9z M426.7,454.1l-17.1,4.1v-14.4c0-4.7-3.8-8.5-8.5-8.5s-8.5,3.8-8.5,8.5
			v18.5l-17.1,4.1v-31.1c0-4.7-3.8-8.5-8.5-8.5c-4.7,0-8.5,3.8-8.5,8.5v35.1l-17.1,4.1v-13.6c0-4.7-3.8-8.5-8.5-8.5
			c-4.7,0-8.5,3.8-8.5,8.5v17.6l-17.1,4.1v-30.2c0-4.7-3.8-8.5-8.5-8.5s-8.5,3.8-8.5,8.5v34.3l-25.6,6.1V332.1l35.2,64.5
			c1.5,2.7,4.4,4.4,7.5,4.4c0.7,0,1.3-0.1,2-0.2l117.5-28V454.1z M311.6,382.7l-42.8-78.3l162-38.6l42.8,78.3L311.6,382.7z
			 M473.6,167.8l-42.8,78.3l-82.6-19.6c-0.1-4.7-0.5-9.3-1.2-13.9c-2.9-17.7-10.4-34.4-21.8-48.3l10.9-1.8c5.3-0.9,9.8-4.1,12.3-8.8
			c2.5-4.7,2.7-10.3,0.4-15.2l-0.2-0.5L473.6,167.8z M152,37l121.9-19.9l59.4,128.6l-196.8,32.1L152,37z M122.7,147.8l-3.1,28.2
			c-0.5,4.8,1,9.6,4.2,13.2c3.2,3.6,7.8,5.7,12.7,5.7c0.9,0,1.9-0.1,2.8-0.2l10.9-1.8c-4.6,12.3-6.9,25.3-6.6,38.4l-62.4,14.9
			l-42.7-78.3L122.7,147.8z M81.2,265.8l162,38.6l-42.7,78.3l-162-38.6L81.2,265.8z"/>
	</g>
</g>
</svg>
