<?xml version="1.0" encoding="utf-8"?>
<!-- Generator: Adobe Illustrator 23.0.1, SVG Export Plug-In . SVG Version: 6.00 Build 0)  -->
<svg version="1.1" id="Capa_1" xmlns="http://www.w3.org/2000/svg" xmlns:xlink="http://www.w3.org/1999/xlink" x="0px" y="0px"
	 viewBox="0 0 512 512" style="enable-background:new 0 0 512 512;" xml:space="preserve">
<style type="text/css">
	.st0{fill:#1AB7D1;}
</style>
<g>
	<g>
		<g>
			<path class="st0" d="M347.3,92c-14.5-35.1-48.8-58-86.7-58S188.4,57,173.9,92s-6.5,75.5,20.4,102.3c3.3,3.3,8.7,3.3,12.1,0
				c3.3-3.3,3.3-8.7,0-12.1c-22-22-28.6-55-16.7-83.7c11.9-28.7,39.9-47.4,71-47.4s59.1,18.7,71,47.4s5.3,61.7-16.7,83.7
				c-2.2,2.1-3.1,5.3-2.3,8.3c0.8,3,3.1,5.3,6.1,6.1c3,0.8,6.2-0.1,8.3-2.3C353.8,167.5,361.8,127.1,347.3,92z"/>
			<path class="st0" d="M260.6,93.9c-18.9,0-34.1,15.3-34.1,34.1s15.3,34.1,34.1,34.1s34.1-15.3,34.1-34.1c0-9.1-3.6-17.7-10-24.1
				S269.6,93.9,260.6,93.9z M260.6,145.1c-9.4,0-17.1-7.6-17.1-17.1s7.6-17.1,17.1-17.1s17.1,7.6,17.1,17.1S270,145.1,260.6,145.1z"
				/>
			<path class="st0" d="M443.6,378.2l-27.9-76.8c-2.5-6.7-8.9-11.2-16-11.2H380c-6.9,0-13.1-4.2-15.8-10.5
				c-2.6-6.4-1.2-13.7,3.7-18.6c6.8-6.4,17.4-6.4,24.1,0c3.3,3.2,8.7,3.2,12-0.1s3.3-8.6,0.1-12c-4.3-4.3-9.7-7.3-15.6-8.8V128
				c0-70.7-57.3-128-128-128s-128,57.3-128,128v206c-10.4,2.6-18.9,10-23,19.9c-4.1,9.9-3.2,21.2,2.3,30.3
				c-6.9,0.5-12.8,5.2-14.9,11.8l-28.9,93.9c-1.6,5.2-0.6,10.8,2.6,15.2c3.2,4.4,8.3,6.9,13.7,6.9h113.4c5.4,0,10.5-2.6,13.7-6.9
				s4.2-10,2.6-15.2L185.3,396c-2.2-7.2-8.8-12.1-16.3-12h-27.8c-6.9,0-13.1-4.2-15.8-10.5c-2.6-6.4-1.2-13.7,3.7-18.6
				c6.8-6.4,17.4-6.4,24.1,0c3.3,3.2,8.7,3.2,12-0.1s3.3-8.6,0.1-12c-4.3-4.3-9.7-7.3-15.6-8.8V191.6
				c22.7,39.8,65.1,64.4,110.9,64.4s88.2-24.6,110.9-64.4v48.6c-10.8,2.7-19.6,10.6-23.5,21.1c-3.9,10.5-2.4,22.2,4,31.3
				c-3.5,1.9-6.3,5.1-7.7,8.8l-27.9,76.8c-1.9,5.2-1.1,11.1,2.1,15.6c3.2,4.6,8.4,7.3,14,7.3h95.1c5.6,0,10.8-2.7,14-7.3
				S445.5,383.4,443.6,378.2z M168.9,401.1l28.9,93.9H84.4l28.9-93.9H168.9z M260.6,238.9c-61.3,0-110.9-49.7-110.9-110.9
				c0.1-61.2,49.7-110.9,110.9-110.9c61.3,0,110.9,49.7,110.9,110.9S321.8,238.9,260.6,238.9z M332.5,384l27.9-76.8h39.3l28,76.8
				H332.5z"/>
			<path class="st0" d="M116.2,472.6c0.2,0.5,0.4,1.1,0.8,1.5c0.3,0.4,0.7,0.9,1,1.3c3.4,3.3,8.8,3.3,12.1,0
				c1.6-1.6,2.5-3.8,2.5-6.1c0-3.5-2.1-6.6-5.3-7.9c-3.2-1.3-6.9-0.6-9.3,1.9c-1.6,1.6-2.4,3.8-2.5,6.1c0,0.6,0.1,1.1,0.2,1.7
				C115.8,471.6,116,472.1,116.2,472.6z"/>
			<path class="st0" d="M150.3,472.6c0.2,0.5,0.4,1.1,0.8,1.5c0.3,0.4,0.7,0.9,1,1.3c3.4,3.3,8.8,3.3,12.1,0
				c1.6-1.6,2.5-3.8,2.5-6.1c0-3.5-2.1-6.6-5.3-7.9c-3.2-1.3-6.9-0.6-9.3,1.9c-1.6,1.6-2.4,3.8-2.5,6.1c0,0.6,0.1,1.1,0.2,1.7
				C149.9,471.6,150.1,472.1,150.3,472.6z"/>
			<path class="st0" d="M356.9,352.3c-1.6,1.6-2.5,3.8-2.5,6.1c0,2.3,0.9,4.5,2.5,6.1s3.8,2.5,6.1,2.5c2.3,0,4.4-0.9,6.1-2.5
				c3.3-3.3,3.3-8.8,0-12.1C365.7,349,360.3,349,356.9,352.3z"/>
			<path class="st0" d="M391.1,352.3c-2.5,2.4-3.2,6.1-1.9,9.3c1.3,3.2,4.5,5.3,7.9,5.3c3.5,0,6.6-2.1,7.9-5.3
				c1.3-3.2,0.6-6.9-1.9-9.3c-0.8-0.8-1.8-1.4-2.8-1.8C397.2,349.3,393.5,350,391.1,352.3z"/>
		</g>
	</g>
</g>
</svg>
